{"title":"Lucy 2014 HC 720p HDRIP x264 AC3 TiTAN","uid":11159009,"size":2011930905,"categoryP":"video","categoryS":"hd___movies","magnet":"?xt=urn:btih:749f6d50f0b94172b9529b73e7a0f4ebbada71a8&amp;dn=Lucy+2014+HC+720p+HDRIP+x264+AC3+TiTAN&amp;tr=udp%3A%2F%2Ftracker.openbittorrent.com%3A80&amp;tr=udp%3A%2F%2Fopen.demonii.com%3A1337&amp;tr=udp%3A%2F%2Ftracker.coppersurfer.tk%3A6969&amp;tr=udp%3A%2F%2Fexodus.desync.com%3A6969","seeders":12,"leechers":0,"uploader":"jacks66","files":-1,"time":1412484732,"description":"Lucy 2014 HC 720p HDRIP x264 AC3 TiTAN\n\nSource: JYK THX\n\nFormat : Matroska\nFormat version : Version 2\nFile size : 1.87 GiB\nDuration : 1h 24mn\nOverall bit rate mode : Variable\nOverall bit rate : 3 170 Kbps\nEncoded date : UTC 2014-10-03 14:36:35\n\nVideo\nID : 1\nFormat : AVC\nFormat/Info : Advanced Video Codec\nFormat profile : &lt;a class=&quot;__cf_email__&quot; href=&quot;/cdn-cgi/l/email-protection&quot; data-cfemail=&quot;a1e9c8c6c9e1ed958f90&quot;&gt;[email&amp;#160;protected]&lt;/a&gt;&lt;script cf-hash='f9e31' type=&quot;text/javascript&quot;&gt;\n/* &lt;![CDATA[ */!function(){try{var t=&quot;currentScript&quot;in document?document.currentScript:function(){for(var t=document.getElementsByTagName(&quot;script&quot;),e=t.length;e--;)if(t[e].getAttribute(&quot;cf-hash&quot;))return t[e]}();if(t&amp;&amp;t.previousSibling){var e,r,n,i,c=t.previousSibling,a=c.getAttribute(&quot;data-cfemail&quot;);if(a){for(e=&quot;&quot;,r=parseInt(a.substr(0,2),16),n=2;a.length-n;n+=2)i=parseInt(a.substr(n,2),16)^r,e+=String.fromCharCode(i);e=document.createTextNode(e),c.parentNode.replaceChild(e,c)}}}catch(u){}}();/* ]]&gt; */&lt;/script&gt;\nFormat settings, CABAC : Yes\nFormat settings, ReFrames : 3 frames\nCodec ID : V_MPEG4/ISO/AVC\nDuration : 1h 24mn\nBit rate mode : Variable\nBit rate : 2 915 Kbps\nMaximum bit rate : 40.0 Mbps\nWidth : 1 280 pixels\nHeight : 720 pixels\nDisplay aspect ratio : 16:9\nFrame rate mode : Constant\nFrame rate : 30.000 fps\nColor space : YUV\nChroma subsampling : 4:2:0\nBit depth : 8 bits\nScan type : Progressive\nBits/(Pixel*Frame) : 0.105\nStream size : 1.72 GiB (92%)\nDefault : Yes\nForced : No\nColor primaries : BT.709\nTransfer characteristics : BT.709\nMatrix coefficients : BT.709\n\nAudio\nID : 2\nFormat : AC-3\nFormat/Info : Audio Coding 3\nMode extension : CM (complete main)\nFormat settings, Endianness : Big\nCodec ID : A_AC3\nDuration : 1h 24mn\nBit rate mode : Constant\nBit rate : 192 Kbps\nChannel(s) : 2 channels\nChannel positions : Front: L R\nSampling rate : 44.1 KHz\nBit depth : 16 bits\nCompression mode : Lossy\nStream size : 116 MiB (6%)\nLanguage : English\nDefault : Yes\nForced : No\n\n\nScreens:\n &lt;a href=&quot;\nhttp://imgsleek.com/img-5430b13f84337.html&quot; rel=&quot;nofollow&quot; target=&quot;_NEW&quot;&gt;\nhttp://imgsleek.com/img-5430b13f84337.html&lt;/a&gt;\n &lt;a href=&quot;\nhttp://imgsleek.com/img-5430b13f93774.html&quot; rel=&quot;nofollow&quot; target=&quot;_NEW&quot;&gt;\nhttp://imgsleek.com/img-5430b13f93774.html&lt;/a&gt;\n &lt;a href=&quot;\nhttp://imgsleek.com/img-5430b13fa0989.html&quot; rel=&quot;nofollow&quot; target=&quot;_NEW&quot;&gt;\nhttp://imgsleek.com/img-5430b13fa0989.html&lt;/a&gt;\n &lt;a href=&quot;\nhttp://imgsleek.com/img-5430b13fb27c2.html&quot; rel=&quot;nofollow&quot; target=&quot;_NEW&quot;&gt;\nhttp://imgsleek.com/img-5430b13fb27c2.html&lt;/a&gt;\n &lt;a href=&quot;\nhttp://imgsleek.com/img-5430b13fc99bd.html&quot; rel=&quot;nofollow&quot; target=&quot;_NEW&quot;&gt;\nhttp://imgsleek.com/img-5430b13fc99bd.html&lt;/a&gt;\n","torrent":{"xt":"urn:btih:749f6d50f0b94172b9529b73e7a0f4ebbada71a8","amp;dn":"Lucy+2014+HC+720p+HDRIP+x264+AC3+TiTAN","amp;tr":["udp%3A%2F%2Ftracker.openbittorrent.com%3A80","udp%3A%2F%2Fopen.demonii.com%3A1337","udp%3A%2F%2Ftracker.coppersurfer.tk%3A6969","udp%3A%2F%2Fexodus.desync.com%3A6969"],"infoHash":"749f6d50f0b94172b9529b73e7a0f4ebbada71a8","infoHashBuffer":{"type":"Buffer","data":[116,159,109,80,240,185,65,114,185,82,155,115,231,160,244,235,186,218,113,168]},"announce":[],"urlList":[]}}